<?xml version="1.0" encoding="UTF-8" standalone="no"?>
<!-- Created with Inkscape (http://www.inkscape.org/) -->
<svg id="svg3000" xmlns:rdf="http://www.w3.org/1999/02/22-rdf-syntax-ns#" xmlns="http://www.w3.org/2000/svg" height="28" width="177" version="1.1" xmlns:cc="http://creativecommons.org/ns#" xmlns:dc="http://purl.org/dc/elements/1.1/">
 <metadata id="metadata3005">
  <rdf:RDF>
   <cc:Work rdf:about="">
    <dc:format>image/svg+xml</dc:format>
    <dc:type rdf:resource="http://purl.org/dc/dcmitype/StillImage"/>
    <dc:title/>
   </cc:Work>
  </rdf:RDF>
 </metadata>
 <g id="layer1" transform="translate(0,-1024.3622)">
  <g id="layer1-2" fill-rule="nonzero" transform="matrix(0.21975373,0,0,0.21975373,45.157494,967.83358)">
   <path id="path5771" d="m140.6,371.5c-5.205,0-12.961-1.5938-13.918-1.81v-7.7512c2.5512,0.53,9.135,1.6288,13.812,1.6288,5.4162,0,8.9225-4.6062,8.9225-12.784,0-9.6688-1.5912-14.768-9.135-14.768h-8.7125v-7.755h7.6488c8.6075,0,9.03-8.8188,9.03-13.068,0-8.395-2.6562-11.794-7.9662-11.794-4.675,0-9.9888,1.1688-13.069,1.8062v-7.7538c1.17-0.21375,7.4388-1.8062,12.855-1.8062,10.944,0,17.211,4.6738,17.211,20.505,0,7.2238-2.5512,13.596-8.1812,15.616,6.4788,0.42375,9.4538,7.5412,9.4538,17.954,0,15.829-6.1588,21.779-17.952,21.779m-48.867-68.1c-9.5588,0-12.749,6.4838-12.749,29.854,0,22.842,3.19,30.491,12.749,30.491,9.5612,0,12.749-7.6488,12.749-30.491,0-23.37-3.1875-29.854-12.749-29.854m0,68.1c-17.529,0-22.205-12.749-22.205-38.776,0-24.968,4.6762-37.078,22.205-37.078,17.53,0,22.202,12.11,22.202,37.078,0,26.028-4.6725,38.776-22.202,38.776m-52.91-68.204c-5.845,0-9.9862,0.63625-9.9862,0.63625v31.02h9.9862c5.9488,0,10.092-3.9312,10.092-15.51,0-10.625-2.55-16.146-10.092-16.146m-1.0625,39.412-8.9238,0,0,28.045-9.2425,0,0-74.365s9.1362-0.7425,17.954-0.7425c16.149,0,20.825,9.985,20.825,23.052,0,16.15-5.5262,24.01-20.612,24.01m-48.018-6.48,0,34.525-9.5612,0,0-34.525-19.015-39.84,10.196,0,14.024,30.065,14.024-30.065,9.6663,0-19.334,39.84zm-49.58-31.764,0,66.289-9.2412,0,0-66.289-16.361,0,0-8.0762,41.962,0,0,8.0762-16.36,0z" fill="#000"/>
   <path id="path5775" d="m-129.97,340.07c-1.5012,0.4425-2.6975,0.595-4.2625,0.595-12.84,0-31.7-44.87-31.7-59.804,0-5.5012,1.3062-7.335,3.1425-8.9062-15.718,1.8325-34.58,7.5975-40.608,14.932-1.3088,1.835-2.095,4.7162-2.095,8.3825,0,23.318,24.888,76.234,42.441,76.234,8.12,0,21.816-13.36,33.081-31.434" fill="#ff8700"/>
   <path id="path5779" d="m-138.16,270.38c16.242,0,32.488,2.62,32.488,11.789,0,18.601-11.789,41.131-17.815,41.131-10.74,0-24.101-29.864-24.101-44.798,0-6.8112,2.62-8.1225,9.4288-8.1225" fill="#ff8700"/>
  </g>
  <g id="text3021" style="writing-mode:lr-tb;letter-spacing:0px;text-anchor:start;word-spacing:0px;text-align:start;" font-weight="normal" font-size="20px" font-stretch="normal" font-variant="normal" font-style="normal" font-family="Gill Sans" line-height="125%" fill="#ff8700">
   <path id="path2990" style="" d="m98.657,1049.3,0-13.623,4.5996,0c1.8555,0,3.3236,0.2799,4.4043,0.8398,1.0807,0.5534,1.9401,1.3704,2.5781,2.4512,0.63801,1.0807,0.95702,2.2591,0.95703,3.5351-0.00001,0.9115-0.17579,1.7839-0.52734,2.6172-0.35158,0.8333-0.85288,1.5658-1.5039,2.1973-0.66407,0.651-1.4356,1.1426-2.3144,1.4746-0.51433,0.2018-0.98634,0.3385-1.416,0.4101-0.42969,0.065-1.25,0.098-2.4609,0.098h-4.3164m4.3945-11.885-2.4414,0,0,10.146,2.5,0c0.97656,0,1.735-0.065,2.2754-0.1953,0.54036-0.1367,0.98958-0.306,1.3477-0.5078,0.36457-0.2083,0.6966-0.4622,0.99609-0.7617,0.96353-0.9766,1.4453-2.2103,1.4453-3.7012-0.00002-1.4648-0.49481-2.6595-1.4844-3.584-0.36459-0.345-0.78451-0.6282-1.2598-0.8496-0.46876-0.2213-0.91473-0.3678-1.3379-0.4394-0.42318-0.072-1.1035-0.1075-2.041-0.1075"/>
   <path id="path2992" style="" d="m121.05,1045-6.3184,0c0.0456,0.8594,0.33203,1.543,0.85937,2.0508,0.53385,0.5078,1.2207,0.7617,2.0606,0.7617,1.1719,0,2.2526-0.3646,3.2422-1.0938v1.7383c-0.54689,0.3646-1.0905,0.625-1.6309,0.7813-0.53386,0.1562-1.1621,0.2343-1.8848,0.2343-0.98959,0-1.7904-0.205-2.4023-0.6152-0.61198-0.4101-1.1035-0.9603-1.4746-1.6504-0.36459-0.6966-0.54688-1.5006-0.54688-2.4121,0-1.3672,0.38737-2.4772,1.1621-3.3301,0.77474-0.8593,1.7806-1.289,3.0176-1.289,1.1914,0,2.1419,0.4166,2.8516,1.25,0.70963,0.8333,1.0644,1.9498,1.0645,3.3496v0.2246m-6.2793-1.0645,4.5215,0c-0.0456-0.7096-0.25716-1.2565-0.63476-1.6406-0.37761-0.3841-0.88542-0.5761-1.5234-0.5762-0.63802,0.0001-1.1621,0.1921-1.5723,0.5762-0.40364,0.3841-0.66732,0.931-0.79101,1.6406"/>
   <path id="path2994" style="" d="m128.46,1040.4,1.9238,0-3.9648,9.1406-0.5957,0-4.0625-9.1406,1.9434,0,2.4219,5.5273,2.334-5.5273"/>
  </g>
 </g>
</svg>
