<?xml version="1.0" encoding="UTF-8" standalone="no"?>
<svg width="215px" height="60px" viewBox="0 0 215 60" version="1.1" xmlns="http://www.w3.org/2000/svg" xmlns:sketch="http://www.bohemiancoding.com/sketch/ns">
    <!-- Generator: Sketch 3.5.1 (25234) - http://www.bohemiancoding.com/sketch -->
    <title>typo3-white</title>
    <desc>Created with Sketch.</desc>
    <defs></defs>
    <g id="Page-1" stroke="none" stroke-width="1" fill="none" fill-rule="evenodd" sketch:type="MSPage">
        <g id="typo3-white" sketch:type="MSLayerGroup" fill="#FFFFFF">
            <g id="Group" sketch:type="MSShapeGroup">
                <path d="M85.7350588,20.1141176 L85.7350588,59.0696471 L80.3061176,59.0696471 L80.3061176,20.1141176 L70.6905882,20.1141176 L70.6905882,15.3705882 L95.3498824,15.3705882 L95.3498824,20.1141176 L85.7350588,20.1141176 L85.7350588,20.1141176 Z M114.873176,38.7776471 L114.873176,59.0696471 L109.250118,59.0696471 L109.250118,38.7776471 L98.0795294,15.3705882 L104.068941,15.3705882 L112.305176,33.0317647 L120.547059,15.3705882 L126.231529,15.3705882 L114.873176,38.7776471 L114.873176,38.7776471 Z M143.085882,42.5872941 L137.841882,42.5872941 L137.841882,59.0696471 L132.408,59.0696471 L132.408,15.3705882 C132.408,15.3705882 137.781882,14.9294118 142.965176,14.9294118 C152.450824,14.9294118 155.198824,20.7995294 155.198824,28.4788235 C155.198824,37.9658824 151.948941,42.5872941 143.085882,42.5872941 L143.085882,42.5872941 Z M143.707059,19.4272941 C140.277176,19.4272941 137.841176,19.8021176 137.841176,19.8021176 L137.841176,38.0244706 L143.707059,38.0244706 C147.205412,38.0244706 149.642824,35.7176471 149.642824,28.9136471 C149.643529,22.6687059 148.138588,19.4272941 143.707059,19.4272941 L143.707059,19.4272941 Z M174.801176,59.5023529 C164.503765,59.5023529 161.755765,52.0129412 161.755765,36.7228235 C161.755765,22.0482353 164.504471,14.9301176 174.801176,14.9301176 C185.097882,14.9301176 187.844471,22.0482353 187.844471,36.7228235 C187.844471,52.0129412 185.097882,59.5023529 174.801176,59.5023529 L174.801176,59.5023529 Z M174.801176,19.4858824 C169.187294,19.4858824 167.311059,23.2976471 167.311059,37.0327059 C167.311059,50.4487059 169.187294,54.9501176 174.801176,54.9501176 C180.415059,54.9501176 182.290588,50.4487059 182.290588,37.0327059 C182.291294,23.2976471 180.415059,19.4858824 174.801176,19.4858824 L174.801176,19.4858824 Z M203.515059,59.5023529 C200.457882,59.5023529 195.905647,58.5698824 195.336,58.4364706 L195.336,53.8877647 C196.838824,54.1969412 200.706353,54.84 203.455765,54.84 C206.632941,54.84 208.699059,52.1421176 208.699059,47.3294118 C208.699059,41.6548235 207.768706,38.6569412 203.333647,38.6569412 L198.211765,38.6569412 L198.211765,34.0948235 L202.702588,34.0948235 C207.768,34.0948235 208.007294,28.9136471 208.007294,26.4197647 C208.007294,21.4856471 206.452941,19.4858824 203.333647,19.4858824 C200.587765,19.4858824 197.458588,20.1727059 195.654353,20.5489412 L195.654353,15.9931765 C196.336941,15.8668235 200.025882,14.9301176 203.204471,14.9301176 C209.631529,14.9301176 213.321176,17.6774118 213.321176,26.9830588 C213.321176,31.2289412 211.816235,34.9672941 208.507765,36.1609412 C212.317412,36.4108235 214.062353,40.5917647 214.062353,46.7082353 C214.062353,56.0124706 210.444,59.5023529 203.515059,59.5023529 L203.515059,59.5023529 Z" id="Shape"></path>
                <path d="M44.5228235,41.0315294 C43.6425882,41.2912941 42.9402353,41.3887059 42.0190588,41.3887059 C34.4724706,41.3887059 23.3915294,15.0176471 23.3915294,6.24070588 C23.3915294,3.00988235 24.156,1.932 25.236,1.00658824 C16.0002353,2.08447059 4.91788235,5.47411765 1.37435294,9.78282353 C0.608470588,10.8621176 0.142588235,12.5541176 0.142588235,14.7098824 C0.142588235,28.4110588 14.7670588,59.5016471 25.0828235,59.5016471 C29.8567059,59.5023529 37.9030588,51.6571765 44.5228235,41.0315294" id="Shape"></path>
                <path d="M39.7058824,0.0861176471 C49.2494118,0.0861176471 58.7992941,1.62494118 58.7992941,7.01223529 C58.7992941,17.9414118 51.8682353,31.1858824 48.3296471,31.1858824 C42.0176471,31.1858824 34.1661176,13.6327059 34.1661176,4.85576471 C34.1668235,0.853411765 35.7056471,0.0861176471 39.7058824,0.0861176471" id="Shape"></path>
            </g>
        </g>
    </g>
</svg>
