<svg xmlns="http://www.w3.org/2000/svg" height="28" width="177"><path d="M76.055 25.11c-1.144 0-2.848-.35-3.059-.398V23.01c.561.116 2.008.358 3.036.358 1.19 0 1.96-1.013 1.96-2.81 0-2.124-.35-3.245-2.007-3.245H74.07v-1.704h1.681c1.892 0 1.985-1.938 1.985-2.872 0-1.845-.584-2.592-1.751-2.592-1.027 0-2.195.257-2.872.397V8.837c.257-.047 1.635-.397 2.825-.397 2.405 0 3.782 1.028 3.782 4.506 0 1.588-.56 2.988-1.798 3.432 1.424.093 2.078 1.657 2.078 3.946 0 3.478-1.354 4.786-3.945 4.786M65.316 10.144c-2.1 0-2.802 1.425-2.802 6.56 0 5.02.701 6.701 2.802 6.701s2.802-1.68 2.802-6.7c0-5.136-.7-6.56-2.802-6.56m0 14.965c-3.852 0-4.88-2.802-4.88-8.522 0-5.486 1.028-8.148 4.88-8.148s4.879 2.662 4.879 8.148c0 5.72-1.027 8.522-4.879 8.522M53.689 10.122c-1.285 0-2.195.14-2.195.14v6.816h2.195c1.307 0 2.218-.864 2.218-3.408 0-2.335-.56-3.548-2.218-3.548m-.234 8.66h-1.96v6.164h-2.032V8.604s2.008-.164 3.946-.164c3.548 0 4.576 2.195 4.576 5.066 0 3.55-1.214 5.276-4.53 5.276m-10.552-1.424v7.587h-2.1v-7.587l-4.18-8.755h2.241l3.082 6.607 3.082-6.607h2.124l-4.249 8.755zm-10.895-6.98v14.567h-2.03V10.378h-3.596V8.603h9.221v1.775h-3.595z"/><path d="M16.596 18.203c-.33.097-.593.13-.937.13-2.821 0-6.966-9.86-6.966-13.141 0-1.21.287-1.612.69-1.958C5.93 3.637 1.786 4.904.46 6.516.172 6.919 0 7.552 0 8.358 0 13.482 5.469 25.11 9.326 25.11c1.785 0 4.794-2.936 7.27-6.908M14.796 2.888c3.57 0 7.14.576 7.14 2.591 0 4.088-2.591 9.039-3.915 9.039-2.36 0-5.297-6.563-5.297-9.845 0-1.497.576-1.785 2.072-1.785" fill="#ff8700"/><g style="text-align:start" font-size="20" font-family="Gill Sans" fill="#ff8700" letter-spacing="0" word-spacing="0"><path d="M98.657 24.938V11.315h4.6c1.855 0 3.323.28 4.404.84 1.08.553 1.94 1.37 2.578 2.45a6.83 6.83 0 0 1 .957 3.536c0 .911-.176 1.784-.527 2.617a6.613 6.613 0 0 1-1.504 2.197 6.602 6.602 0 0 1-2.315 1.475 7.13 7.13 0 0 1-1.416.41c-.43.065-1.25.098-2.46.098h-4.317m4.395-11.885h-2.442V23.2h2.5c.977 0 1.735-.065 2.276-.195.54-.137.99-.306 1.347-.508.365-.208.697-.462.996-.762.964-.976 1.446-2.21 1.446-3.7 0-1.466-.495-2.66-1.485-3.585a4.713 4.713 0 0 0-1.26-.85 5.176 5.176 0 0 0-1.337-.439c-.424-.072-1.104-.107-2.041-.107M121.05 20.638h-6.318c.045.86.332 1.543.859 2.05.534.508 1.22.762 2.06.762 1.172 0 2.253-.364 3.243-1.094v1.739a5.916 5.916 0 0 1-1.631.781c-.534.156-1.162.234-1.885.234-.99 0-1.79-.205-2.402-.615a4.526 4.526 0 0 1-1.475-1.65c-.364-.697-.547-1.5-.547-2.412 0-1.368.388-2.478 1.162-3.33.775-.86 1.781-1.29 3.018-1.29 1.191 0 2.142.417 2.852 1.25.71.834 1.064 1.95 1.064 3.35v.225m-6.28-1.065h4.522c-.045-.71-.257-1.256-.634-1.64-.378-.384-.886-.576-1.524-.577-.638 0-1.162.193-1.572.577-.404.384-.667.93-.791 1.64M128.46 16.038h1.924l-3.965 9.14h-.596l-4.062-9.14h1.943l2.422 5.527 2.334-5.527"/></g></svg>