<svg width="215" height="60" viewBox="0 0 215 60" xmlns="http://www.w3.org/2000/svg"><title>typo3-white</title><g fill="#FFF" fill-rule="evenodd"><path d="M85.735 20.114V59.07h-5.429V20.114h-9.615v-4.743H95.35v4.743h-9.615zm29.138 18.664V59.07h-5.623V38.778L98.08 15.37h5.989l8.236 17.66 8.242-17.66h5.685l-11.359 23.407zm28.213 3.81h-5.244V59.07h-5.434v-43.7s5.374-.44 10.557-.44c9.486 0 12.234 5.87 12.234 13.549 0 9.487-3.25 14.108-12.113 14.108zm.621-23.16c-3.43 0-5.866.374-5.866.374v18.222h5.866c3.498 0 5.936-2.306 5.936-9.11 0-6.245-1.504-9.487-5.936-9.487zm31.094 40.074c-10.297 0-13.045-7.49-13.045-22.78 0-14.674 2.748-21.792 13.045-21.792s13.043 7.118 13.043 21.793c0 15.29-2.746 22.78-13.043 22.78zm0-40.016c-5.614 0-7.49 3.812-7.49 17.547 0 13.416 1.876 17.917 7.49 17.917 5.614 0 7.49-4.501 7.49-17.917 0-13.735-1.876-17.547-7.49-17.547zm28.714 40.016c-3.057 0-7.61-.932-8.179-1.066v-4.548c1.503.309 5.37.952 8.12.952 3.177 0 5.243-2.698 5.243-7.51 0-5.675-.93-8.673-5.365-8.673h-5.122v-4.562h4.49c5.066 0 5.305-5.181 5.305-7.675 0-4.934-1.554-6.934-4.673-6.934-2.746 0-5.875.687-7.68 1.063v-4.556c.683-.126 4.372-1.063 7.55-1.063 6.428 0 10.117 2.747 10.117 12.053 0 4.246-1.505 7.984-4.813 9.178 3.81.25 5.554 4.43 5.554 10.547 0 9.304-3.618 12.794-10.547 12.794zM44.523 41.032c-.88.26-1.583.357-2.504.357-7.547 0-18.627-26.371-18.627-35.148 0-3.231.764-4.309 1.844-5.234C16 2.084 4.918 5.474 1.374 9.783.608 10.863.143 12.554.143 14.71c0 13.701 14.624 44.792 24.94 44.792 4.774 0 12.82-7.845 19.44-18.47M39.706.086c9.543 0 19.093 1.539 19.093 6.926 0 10.93-6.93 24.174-10.47 24.174-6.311 0-14.163-17.553-14.163-26.33 0-4.003 1.54-4.77 5.54-4.77"/></g></svg>